<svg xmlns="http://www.w3.org/2000/svg" xmlns:xlink="http://www.w3.org/1999/xlink" width="36" height="36" viewBox="0 0 36 36">
  <defs>
    <linearGradient id="a" x1="18" y1="1.181" x2="18" y2="37.126" gradientTransform="matrix(1, 0, 0, -1, 0, 37.276)" gradientUnits="userSpaceOnUse">
      <stop offset="0" stop-color="#3d3f58"/>
      <stop offset="1" stop-color="#777e92"/>
    </linearGradient>
  </defs>
  <title>icon</title>
  <circle cx="18" cy="18" r="18" fill="url(#a)"/>
  <path d="M19.812,6.294a2.091,2.091,0,0,0-3.621,0l-2.98,5.163.76.437a14.62,14.62,0,0,1,7.274,11.77H19.152A12.529,12.529,0,0,0,12.917,13.7l-.76-.435L9.38,18.09l.761.437a7.049,7.049,0,0,1,3.415,5.137H8.776a.345.345,0,0,1-.35-.34.349.349,0,0,1,.046-.179L9.8,20.838a4.86,4.86,0,0,0-1.52-.868l-1.319,2.3a2.092,2.092,0,0,0,1.811,3.136h6.577v-.871a8.69,8.69,0,0,0-3.61-7.055l1.047-1.813a10.79,10.79,0,0,1,4.647,8.86V25.4H23.01v-.871a16.365,16.365,0,0,0-7.427-13.694L17.7,7.167a.346.346,0,0,1,.472-.126.354.354,0,0,1,.126.126L27.52,23.145a.345.345,0,0,1-.125.472.34.34,0,0,1-.179.047H25.058a17.215,17.215,0,0,1,0,1.745h2.166a2.09,2.09,0,0,0,1.811-3.135Z" transform="translate(0 0)" fill="#fff"/>
</svg>
